<svg xmlns="http://www.w3.org/2000/svg" viewBox="0 0 1024 1024" role="img" aria-label="IoTCoWork">
  <defs>
    <linearGradient id="plate" x1="170" y1="116" x2="854" y2="908" gradientUnits="userSpaceOnUse">
      <stop offset="0" stop-color="#172033"/>
      <stop offset="0.52" stop-color="#0f172a"/>
      <stop offset="1" stop-color="#073f3a"/>
    </linearGradient>
    <linearGradient id="flow" x1="248" y1="650" x2="776" y2="374" gradientUnits="userSpaceOnUse">
      <stop offset="0" stop-color="#2dd4bf"/>
      <stop offset="0.58" stop-color="#14b8a6"/>
      <stop offset="1" stop-color="#7dd3fc"/>
    </linearGradient>
    <radialGradient id="nodeGlow" cx="0" cy="0" r="1" gradientTransform="matrix(220 0 0 220 512 512)" gradientUnits="userSpaceOnUse">
      <stop offset="0" stop-color="#ccfbf1" stop-opacity="0.9"/>
      <stop offset="0.38" stop-color="#2dd4bf" stop-opacity="0.42"/>
      <stop offset="1" stop-color="#2dd4bf" stop-opacity="0"/>
    </radialGradient>
    <filter id="shadow" x="-18%" y="-18%" width="136%" height="136%" color-interpolation-filters="sRGB">
      <feDropShadow dx="0" dy="30" stdDeviation="34" flood-color="#020617" flood-opacity="0.35"/>
    </filter>
  </defs>
  <rect x="96" y="96" width="832" height="832" rx="224" fill="url(#plate)"/>
  <rect x="132" y="132" width="760" height="760" rx="190" fill="none" stroke="#ffffff" stroke-opacity="0.08" stroke-width="18"/>
  <g filter="url(#shadow)">
    <path d="M276 644L420 500L512 592L748 356" fill="none" stroke="url(#flow)" stroke-width="78" stroke-linecap="round" stroke-linejoin="round"/>
    <path d="M276 644L420 500L512 592L748 356" fill="none" stroke="#ecfeff" stroke-opacity="0.36" stroke-width="22" stroke-linecap="round" stroke-linejoin="round"/>
    <circle cx="512" cy="592" r="150" fill="url(#nodeGlow)"/>
    <circle cx="512" cy="592" r="76" fill="#0f766e"/>
    <circle cx="512" cy="592" r="42" fill="#ecfeff"/>
    <circle cx="276" cy="644" r="54" fill="#2dd4bf"/>
    <circle cx="420" cy="500" r="44" fill="#99f6e4"/>
    <circle cx="748" cy="356" r="58" fill="#7dd3fc"/>
    <path d="M704 666h92c25 0 46 21 46 46v76" fill="none" stroke="#99f6e4" stroke-width="38" stroke-linecap="round" stroke-linejoin="round"/>
    <rect x="766" y="760" width="116" height="86" rx="28" fill="#ecfeff"/>
    <circle cx="805" cy="803" r="12" fill="#0f766e"/>
    <circle cx="843" cy="803" r="12" fill="#0f766e"/>
  </g>
</svg>
